# xmcd
#
# Track frame offsets:
#	150
#	18860
#	27643
#	43289
#	75082
#	103942
#	140845
#	163471
#	183589
#	218946
#	258650
#
# Disc length: 3740 seconds
#
# Revision: 1
# Processed by: cddbd v1.5.2PL0 Copyright (c) Steve Scherf et al.
# Submitted via: audiograbber 1.83.01
#
DISCID=a40e9a0b
DTITLE=Grateful Dead - 70-03-01 Family Dog at the Great Highway, San Francisco 
DTITLE=CA
DYEAR=1900
DGENRE=
TTITLE0=Dire Wolf
TTITLE1=Good Lovin'
TTITLE2=Drums
TTITLE3=Good Lovin'
TTITLE4=Cumberland Blues
TTITLE5=King Bee
TTITLE6=China Cat Sunflower
TTITLE7=I Know You Rider
TTITLE8=Uncle John's Band
TTITLE9=Dancing In The Street
TTITLE10=It's All Over Now Baby Blue
EXTD=
EXTT0=
EXTT1=
EXTT2=
EXTT3=
EXTT4=
EXTT5=
EXTT6=
EXTT7=
EXTT8=
EXTT9=
EXTT10=
PLAYORDER=
